<svg xmlns="http://www.w3.org/2000/svg" width="1500" height="800" viewBox="0 0 1500 800"><g font-family="DejaVu Sans">
<rect width="1500" height="800" fill="white"/>
<text x="55" y="53" font-size="35" fill="#17324D" text-anchor="start">Shared work is charged once, not once per parent</text>
<text x="55" y="96" font-size="26" fill="#087D83" text-anchor="start">ILLUSTRATIVE / INVENTED / NOT MEASURED TI PERFORMANCE</text>
<line x1="150" y1="620.0" x2="1350" y2="620.0" stroke="#D6E0E7" stroke-width="3"/>
<text x="130" y="629.0" font-size="27" fill="#17324D" text-anchor="end">0</text>
<line x1="150" y1="515.0" x2="1350" y2="515.0" stroke="#D6E0E7" stroke-width="3"/>
<text x="130" y="524.0" font-size="27" fill="#17324D" text-anchor="end">5</text>
<line x1="150" y1="410.0" x2="1350" y2="410.0" stroke="#D6E0E7" stroke-width="3"/>
<text x="130" y="419.0" font-size="27" fill="#17324D" text-anchor="end">10</text>
<line x1="150" y1="305.0" x2="1350" y2="305.0" stroke="#D6E0E7" stroke-width="3"/>
<text x="130" y="314.0" font-size="27" fill="#17324D" text-anchor="end">15</text>
<line x1="150" y1="200.0" x2="1350" y2="200.0" stroke="#D6E0E7" stroke-width="3"/>
<text x="130" y="209.0" font-size="27" fill="#17324D" text-anchor="end">20</text>
<line x1="150" y1="200" x2="150" y2="620" stroke="#17324D" stroke-width="3"/>
<line x1="150" y1="620" x2="1350" y2="620" stroke="#17324D" stroke-width="3"/>
<text x="150" y="158" font-size="28" fill="#087D83" text-anchor="start">Invented work units; separate two-root example</text>
<rect x="385.0" y="347.0" width="130" height="273.0" fill="#087D83"/>
<text x="450.0" y="335.0" font-size="28" fill="#087D83" text-anchor="middle">13</text>
<rect x="985.0" y="284.0" width="130" height="336.0" fill="#087D83"/>
<text x="1050.0" y="272.0" font-size="28" fill="#087D83" text-anchor="middle">16</text>
<text x="450.0" y="665" font-size="29" fill="#17324D" text-anchor="middle">Unique executed work</text>
<text x="1050.0" y="665" font-size="29" fill="#17324D" text-anchor="middle">Incorrect inclusive sum</text>
<text x="55" y="725" font-size="27" fill="#17324D" text-anchor="start">P1 depends on C(L) and X; P2 depends on C(L). Shared branch costs 3 units.</text>
<text x="55" y="778" font-size="26" fill="#17324D" text-anchor="start">Real retries add real work. Elapsed wall time and unknown monetary cost are separate.</text>
</g></svg>
