<svg xmlns="http://www.w3.org/2000/svg" width="1500" height="800" viewBox="0 0 1500 800"><g font-family="DejaVu Sans">
<rect width="1500" height="800" fill="white"/>
<text x="60" y="53" font-size="36" fill="#17324D" text-anchor="start">Abstention: precision and coverage must be read together</text>
<text x="60" y="94" font-size="25" fill="#087D83" text-anchor="start">ILLUSTRATIVE • INVENTED DATA • NOT MEASURED TI PERFORMANCE</text>
<text x="665" y="726" font-size="30" fill="#17324D" text-anchor="middle">Coverage of all requested candidates</text>
<text transform="translate(40 397) rotate(-90)" text-anchor="middle" font-size="30" fill="#17324D">Precision among accepted positives</text>
<line x1="140.0" y1="150" x2="140.0" y2="650" stroke="#D6E0E7" stroke-width="3"/>
<line x1="140" y1="650.0" x2="1170" y2="650.0" stroke="#D6E0E7" stroke-width="3"/>
<text x="140.0" y="690" font-size="27" fill="#17324D" text-anchor="middle">0.0</text>
<text x="117" y="660.0" font-size="27" fill="#17324D" text-anchor="end">0.0</text>
<line x1="346.0" y1="150" x2="346.0" y2="650" stroke="#D6E0E7" stroke-width="3"/>
<line x1="140" y1="550.0" x2="1170" y2="550.0" stroke="#D6E0E7" stroke-width="3"/>
<text x="346.0" y="690" font-size="27" fill="#17324D" text-anchor="middle">0.2</text>
<text x="117" y="560.0" font-size="27" fill="#17324D" text-anchor="end">0.2</text>
<line x1="552.0" y1="150" x2="552.0" y2="650" stroke="#D6E0E7" stroke-width="3"/>
<line x1="140" y1="450.0" x2="1170" y2="450.0" stroke="#D6E0E7" stroke-width="3"/>
<text x="552.0" y="690" font-size="27" fill="#17324D" text-anchor="middle">0.4</text>
<text x="117" y="460.0" font-size="27" fill="#17324D" text-anchor="end">0.4</text>
<line x1="758.0" y1="150" x2="758.0" y2="650" stroke="#D6E0E7" stroke-width="3"/>
<line x1="140" y1="350.0" x2="1170" y2="350.0" stroke="#D6E0E7" stroke-width="3"/>
<text x="758.0" y="690" font-size="27" fill="#17324D" text-anchor="middle">0.6</text>
<text x="117" y="360.0" font-size="27" fill="#17324D" text-anchor="end">0.6</text>
<line x1="964.0" y1="150" x2="964.0" y2="650" stroke="#D6E0E7" stroke-width="3"/>
<line x1="140" y1="250.0" x2="1170" y2="250.0" stroke="#D6E0E7" stroke-width="3"/>
<text x="964.0" y="690" font-size="27" fill="#17324D" text-anchor="middle">0.8</text>
<text x="117" y="260.0" font-size="27" fill="#17324D" text-anchor="end">0.8</text>
<line x1="1170.0" y1="150" x2="1170.0" y2="650" stroke="#D6E0E7" stroke-width="3"/>
<line x1="140" y1="150.0" x2="1170" y2="150.0" stroke="#D6E0E7" stroke-width="3"/>
<text x="1170.0" y="690" font-size="27" fill="#17324D" text-anchor="middle">1.0</text>
<text x="117" y="160.0" font-size="27" fill="#17324D" text-anchor="end">1.0</text>
<line x1="140" y1="650" x2="1170" y2="650" stroke="#17324D" stroke-width="3"/>
<line x1="140" y1="650" x2="140" y2="150" stroke="#17324D" stroke-width="3"/>
<text x="210" y="191" font-size="28" fill="#17324D" text-anchor="start">100 requests; 20 hard exclusions at every threshold</text>
<line x1="964.0" y1="375.0" x2="552.0" y2="300.0" stroke="#087D83" stroke-width="3" stroke-dasharray="8 7"/>
<line x1="552.0" y1="300.0" x2="294.5" y2="250.0" stroke="#087D83" stroke-width="3" stroke-dasharray="8 7"/>
<circle cx="964.0" cy="375.0" r="10" fill="#087D83"/>
<text x="920" y="465" font-size="28" fill="#087D83" text-anchor="start">Threshold 0.50</text>
<text x="920" y="501" font-size="26" fill="#17324D" text-anchor="start">44/80 positive</text>
<text x="920" y="535" font-size="26" fill="#17324D" text-anchor="start">Coverage 80%</text>
<circle cx="552.0" cy="300.0" r="10" fill="#087D83"/>
<text x="535" y="445" font-size="28" fill="#087D83" text-anchor="start">Threshold 0.65</text>
<text x="535" y="481" font-size="26" fill="#17324D" text-anchor="start">28/40 positive</text>
<text x="535" y="515" font-size="26" fill="#17324D" text-anchor="start">Coverage 40%</text>
<circle cx="294.5" cy="250.0" r="10" fill="#087D83"/>
<text x="175" y="350" font-size="28" fill="#087D83" text-anchor="start">Threshold 0.80</text>
<text x="175" y="386" font-size="26" fill="#17324D" text-anchor="start">12/15 positive</text>
<text x="175" y="420" font-size="26" fill="#17324D" text-anchor="start">Coverage 15%</text>
<text x="60" y="777" font-size="25" fill="#17324D" text-anchor="start">Connecting segments guide the eye only; real precision need not rise with threshold.</text>
</g></svg>
